<?xml version="1.0" encoding="utf-8"?>
<!-- Generator: Adobe Illustrator 21.1.0, SVG Export Plug-In . SVG Version: 6.00 Build 0)  -->
<svg version="1.1" id="Layer_1" xmlns="http://www.w3.org/2000/svg" xmlns:xlink="http://www.w3.org/1999/xlink" x="0px" y="0px"
	 viewBox="0 0 432 336" style="enable-background:new 0 0 432 336;" xml:space="preserve">
<style type="text/css">
	.st0{fill:#6ABD45;}
	.st1{opacity:0.32;fill:#3C7839;}
	.st2{fill:#3C7839;}
	.st3{fill:#FFFFFF;}
	.st4{fill:none;stroke:#6ABD45;stroke-miterlimit:10;}
	.st5{fill:#20421E;}
	.st6{fill:none;stroke:#20421E;stroke-width:2;stroke-miterlimit:10;}
	.st7{fill:#64BC4B;}
</style>
<rect width="432" height="336"/>
<path class="st0" d="M267.5,255.7c7.8-5.4,16.5-9.5,24.3-14.7c0.7-0.6,1.3-1.2,1.9-1.8c0.4-0.8,0.9-1.5,1.3-2.3
	c2.4-6.2,4.5-12.7,5.8-19.2c0.1-2.6,0.1-5.3,0-7.9c-2.4-10.6-6.3-20.5-6-31.7c0.3-12.1,6.4-22.1,15.6-28l-6.2-14.9
	c3.9-37-12.7-86.8-12.7-86.8c-18.2,8.2-42.4,45-42.4,45c-34.7-8.1-107.6,12.9-107.6,12.9c-18.2-14.1-34.1-17.5-34.1-17.5
	c-9.7,41.2-3,49.8-3,49.8c-2.2,5.3-4.6,34-4.6,34c-0.2,1.6-0.4,3-0.6,4.4c4.6,5.9,7.4,13.3,7.4,20.7c0,2.6,0.1,5.1,0.3,7.7
	c0.5,2.3,1,4.5,1.7,6.7c0.6,1.2,1.3,2.4,2.1,3.5c1.7,1.9,3.6,3.7,5.5,5.3c9.1,7.8,11.3,19.9,8.7,30.9c41,20.3,86.9,19.3,86.9,19.3
	c16.5-0.9,31-3.4,43.7-6.9C259.6,261.3,263.5,258.5,267.5,255.7z"/>
<path class="st0" d="M101.2,158.2c0,0-13.9,60.4,8.5,84.6c0,0,44.5,39.1,145.2,21.4c0,0,68.9-24.2,72.3-58.2c0,0,1.6-31.4-22.5-69.9
	l-82.9-30.6L156,130.9L101.2,158.2z"/>
<path class="st1" d="M102.3,187.3c0,0-0.1-41.4,23.7-55.2c0,0,24.3-22.8,51,45.5c0,0,8.7-2.8,23.1-1.8c0,0,8.6-56.7,33.1-68.1
	c0,0,47.6-29,66.3,37.7c0,0,10.9,29.9,12.8,33.6c0,0,7.1,13.5,13,16.4c0,0-5.3,7.3-10,7.2c0,0-0.7,8.8,7.7,9.7
	c0,0-41.3,46.8-108.1,54.3c0,0-86.5-5.3-107.1-34.3c0,0-7-16.8-5.4-33.7"/>
<path class="st2" d="M291.5,48.3c0,0-21.4,17.6-19,40.3c0,0,25.3,7.5,31.4,42.3C303.9,130.9,309.1,98.6,291.5,48.3z"/>
<path class="st2" d="M107.4,88.6c0,0,15.4,9.3,21.9,20.9l0.5,6.2c0,0-15.6,2.2-25.4,22.7C104.4,138.4,97.7,129.9,107.4,88.6z"/>
<path class="st3" d="M124.5,183.5c0,0,24.9-4.7,34.7-1.8c1,0.3,2-0.6,1.7-1.5c-2.1-7.7-9.4-30-22.1-30.8
	C138.8,149.5,122,145.8,124.5,183.5z"/>
<path class="st2" d="M174,192c0,0,13.7-13,31.8-7l-13.1,16.6L174,192z"/>
<path class="st4" d="M232,169.3"/>
<path class="st4" d="M244.1,139.1"/>
<path class="st5" d="M145,181c3.6-0.3,7.2-0.7,10.8,0c0.2-0.3,0.3-0.6,0.2-0.9c-0.5-6.7-2.1-18.3-8.7-21.8c-0.3-0.2-0.7-0.2-1-0.1
	c-0.1,0-0.1,0-0.2,0c-0.5,0-0.8,0.2-1,0.5c0,0-0.1,0-0.1,0.1c-1.6,1.5-1.8,3.8-1.8,6c-1.1,5.3-0.6,10.7,1.4,15.9
	C144.7,180.8,144.8,180.9,145,181z"/>
<g>
	<path class="st6" d="M228.1,169.2c0,0,6.8-24.8,39.4-27.3c0,0,3.2,0.4,6.9-2.6"/>
	<path class="st6" d="M229,166.5c0,0,10.8-18.4,34.9-14.2c0,0,2,0.6,5.4-0.7"/>
</g>
<g>
	<polygon class="st3" points="171.9,240.1 167.4,233.2 176.5,232.8 	"/>
	<polygon class="st3" points="219.5,237.1 211.2,229 221.7,226.6 	"/>
	<path class="st6" d="M162.6,228.6c0,0,19,14.5,28.8-13c0.1-0.2,0.3-0.3,0.4-0.1c2.6,4,20.1,28.6,42.1,2.1"/>
</g>
<path class="st7" d="M88.7,198.4c-12.7,0.9-27.2,4.8-35,17c0,0,12.4-13.8,35.9-14.7C89.3,199.9,89,199.1,88.7,198.4z"/>
<path class="st7" d="M89.6,211.7c-14.3,4.2-30,12.3-36,28.2c0,0,13.8-21.9,37.6-25.8C90.7,213.3,90.2,212.5,89.6,211.7z"/>
<path class="st7" d="M324.2,162c12.4-6.2,28.1-10.7,42.2-3.6c0,0-19.2-6-41.8,6.3C324.4,163.8,324.3,162.9,324.2,162z"/>
<path class="st7" d="M330.7,175c15.7-4.1,34.9-5.2,49.3,6.3c0,0-25.1-12.8-49.5-3.2C330.6,177.1,330.6,176,330.7,175z"/>
</svg>
